<svg width="94" height="15" viewBox="0 0 94 15" fill="none" xmlns="http://www.w3.org/2000/svg">
<path d="M7.62891 8.62354H5.57812V14.7485H2.84375V8.62354H0.601562V6.10791H2.84375V4.1665C2.84375 1.979 4.15625 0.748535 6.15234 0.748535C7.10938 0.748535 8.12109 0.939941 8.12109 0.939941V3.1001H7C5.90625 3.1001 5.57812 3.75635 5.57812 4.46729V6.10791H8.01172L7.62891 8.62354ZM43.0938 0.967285C46.8125 0.967285 49.875 4.02979 49.875 7.74854C49.875 11.4946 46.8125 14.5298 43.0938 14.5298C39.3477 14.5298 36.3125 11.4946 36.3125 7.74854C36.3125 4.02979 39.3477 0.967285 43.0938 0.967285ZM47.5508 4.11182C47.4414 4.27588 46.4844 5.50635 44.3242 6.38135C44.543 6.81885 44.6797 7.14697 44.8438 7.52979C46.7578 7.28369 48.6719 7.6665 48.8633 7.72119C48.8633 6.354 48.3711 5.09619 47.5508 4.11182ZM46.9219 3.42822C45.5 2.17041 43.5586 1.70557 41.7266 2.14307C41.8906 2.36182 42.9297 3.78369 43.8867 5.53369C45.9375 4.76807 46.8125 3.59229 46.9219 3.42822ZM40.6055 2.52588C38.9922 3.2915 37.7891 4.79541 37.4062 6.57275C37.6797 6.6001 40.0586 6.6001 42.7656 5.88916C41.8086 4.1665 40.7695 2.74463 40.6055 2.52588ZM37.2969 7.77588C37.2969 9.25244 37.8438 10.6196 38.7734 11.6313C39.7031 10.0454 41.6172 8.3501 43.7227 7.74854C43.5586 7.42041 43.4219 7.09229 43.2305 6.76416C40.3594 7.63916 37.543 7.61182 37.2969 7.58447C37.2969 7.6665 37.2969 7.72119 37.2969 7.77588ZM39.5117 12.3423C41.2344 13.6821 43.4766 13.9009 45.3359 13.1079C45.2539 12.5884 44.9258 10.811 44.1055 8.70557C41.7812 9.49854 40.1406 11.1118 39.5117 12.3423ZM46.3203 12.561C47.6055 11.686 48.5352 10.2915 48.8086 8.67822C48.5898 8.62354 47.0039 8.15869 45.1992 8.43213C45.9375 10.5376 46.2656 12.2329 46.3203 12.561ZM83.7812 7.25635C84.957 7.58447 85.5312 8.48682 85.5312 9.68994C85.5312 11.6587 83.8906 12.5063 82.1133 12.5063H77.4375V2.82666H82.0039C83.6445 2.82666 85.0938 3.2915 85.0938 5.23291C85.0938 6.18994 84.6289 6.81885 83.7812 7.25635ZM79.543 4.46729V6.73682H81.7031C82.4688 6.73682 83.0156 6.40869 83.0156 5.58838C83.0156 4.68604 82.332 4.46729 81.5664 4.46729H79.543ZM81.8398 10.8657C82.6875 10.8657 83.3984 10.5649 83.3984 9.58057C83.3984 8.59619 82.8242 8.18604 81.8672 8.18604H79.543V10.8657H81.8398ZM91.6289 4.27588H87.7188V3.31885H91.6289V4.27588ZM93.1875 9.11572C93.1875 9.2251 93.1602 9.36182 93.1602 9.47119H88.1016C88.1016 10.5923 88.7031 11.2485 89.8242 11.2485C90.3984 11.2485 91.1641 10.9478 91.3555 10.3462H93.0508C92.5312 11.9321 91.4375 12.6978 89.7695 12.6978C87.5547 12.6978 86.1602 11.1938 86.1602 9.00635C86.1602 6.90088 87.6094 5.2876 89.7695 5.2876C91.957 5.2876 93.1875 7.0376 93.1875 9.11572ZM88.1016 8.24072H91.2461C91.1641 7.31104 90.6719 6.76416 89.6875 6.76416C88.7852 6.76416 88.1562 7.33838 88.1016 8.24072Z" fill="#C4C4C4"/>
</svg>
