<svg width="111" height="35" viewBox="0 0 111 35" fill="none" xmlns="http://www.w3.org/2000/svg">
<path d="M12.8168 13.4914C12.7372 12.6893 12.3958 12.0662 11.7926 11.6221C11.1894 11.178 10.3707 10.9559 9.33665 10.9559C8.634 10.9559 8.04072 11.0554 7.55682 11.2542C7.07292 11.4465 6.7017 11.7149 6.44318 12.0596C6.19129 12.4043 6.06534 12.7954 6.06534 13.2329C6.05208 13.5975 6.12831 13.9157 6.29403 14.1875C6.46638 14.4592 6.7017 14.6946 7 14.8934C7.2983 15.0857 7.64299 15.2547 8.03409 15.4005C8.42519 15.5397 8.8428 15.659 9.28693 15.7585L11.1165 16.196C12.0047 16.3948 12.8201 16.66 13.5625 16.9914C14.3049 17.3229 14.9479 17.7305 15.4915 18.2144C16.035 18.6983 16.456 19.2684 16.7543 19.9247C17.0592 20.5809 17.215 21.3333 17.2216 22.1818C17.215 23.428 16.8968 24.5085 16.267 25.4233C15.6439 26.3314 14.7424 27.0374 13.5625 27.5411C12.3892 28.0383 10.974 28.2869 9.31676 28.2869C7.67282 28.2869 6.241 28.035 5.02131 27.5312C3.80824 27.0274 2.86032 26.2817 2.17756 25.294C1.50142 24.2997 1.14678 23.07 1.11364 21.6051H5.27983C5.32623 22.2878 5.52178 22.8579 5.86648 23.3153C6.2178 23.7661 6.68513 24.1074 7.26847 24.3394C7.85843 24.5648 8.52462 24.6775 9.26705 24.6775C9.99621 24.6775 10.6293 24.5715 11.1662 24.3593C11.7098 24.1472 12.1307 23.8522 12.429 23.4744C12.7273 23.0965 12.8764 22.6624 12.8764 22.1718C12.8764 21.7144 12.7405 21.33 12.4688 21.0184C12.2036 20.7069 11.8125 20.4417 11.2955 20.223C10.785 20.0042 10.1586 19.8054 9.41619 19.6264L7.19886 19.0696C5.48201 18.6519 4.12642 17.999 3.1321 17.1108C2.13778 16.2225 1.64394 15.026 1.65057 13.5213C1.64394 12.2883 1.97206 11.2111 2.63494 10.2897C3.30445 9.36833 4.22254 8.6491 5.3892 8.13206C6.55587 7.61501 7.88163 7.35649 9.36648 7.35649C10.8778 7.35649 12.197 7.61501 13.3239 8.13206C14.4574 8.6491 15.339 9.36833 15.9688 10.2897C16.5985 11.2111 16.9233 12.2784 16.9432 13.4914H12.8168ZM20.038 33.7258V12.7258H24.2141V15.2911H24.4031C24.5887 14.8802 24.8571 14.4626 25.2085 14.0383C25.5664 13.6074 26.0304 13.2495 26.6005 12.9644C27.1772 12.6728 27.8931 12.5269 28.7482 12.5269C29.8619 12.5269 30.8893 12.8186 31.8306 13.4019C32.7719 13.9786 33.5243 14.8503 34.0877 16.017C34.6512 17.177 34.9329 18.6321 34.9329 20.3821C34.9329 22.0857 34.6578 23.5241 34.1076 24.6974C33.564 25.8641 32.8216 26.749 31.8803 27.3522C30.9457 27.9488 29.8983 28.2471 28.7383 28.2471C27.9163 28.2471 27.217 28.1112 26.6403 27.8394C26.0702 27.5677 25.6029 27.2263 25.2383 26.8153C24.8737 26.3977 24.5953 25.9768 24.4031 25.5525H24.2738V33.7258H20.038ZM24.1843 20.3622C24.1843 21.2703 24.3103 22.0625 24.5621 22.7386C24.814 23.4147 25.1786 23.9417 25.6559 24.3196C26.1332 24.6908 26.7132 24.8764 27.396 24.8764C28.0853 24.8764 28.6687 24.6875 29.146 24.3096C29.6232 23.9251 29.9845 23.3948 30.2298 22.7187C30.4817 22.0359 30.6076 21.2504 30.6076 20.3622C30.6076 19.4805 30.485 18.705 30.2397 18.0355C29.9944 17.366 29.6332 16.8423 29.1559 16.4644C28.6786 16.0866 28.092 15.8977 27.396 15.8977C26.7066 15.8977 26.1232 16.08 25.646 16.4446C25.1753 16.8091 24.814 17.3262 24.5621 17.9957C24.3103 18.6652 24.1843 19.454 24.1843 20.3622ZM44.717 28.2968C43.146 28.2968 41.7937 27.9786 40.6602 27.3423C39.5333 26.6993 38.6649 25.7911 38.055 24.6179C37.4452 23.4379 37.1403 22.0426 37.1403 20.4318C37.1403 18.8608 37.4452 17.482 38.055 16.2954C38.6649 15.1089 39.5233 14.1841 40.6303 13.5213C41.744 12.8584 43.0498 12.5269 44.5479 12.5269C45.5555 12.5269 46.4935 12.6893 47.3619 13.0142C48.2369 13.3323 48.9992 13.8129 49.6488 14.4559C50.305 15.0989 50.8155 15.9076 51.18 16.8821C51.5446 17.8499 51.7269 18.9834 51.7269 20.2826V21.446H38.8306V18.821H47.7397C47.7397 18.2111 47.6071 17.6709 47.342 17.2002C47.0768 16.7296 46.7089 16.3617 46.2383 16.0965C45.7743 15.8248 45.234 15.6889 44.6175 15.6889C43.9746 15.6889 43.4045 15.838 42.9073 16.1363C42.4168 16.428 42.0323 16.8224 41.7539 17.3196C41.4755 17.8101 41.333 18.357 41.3263 18.9602V21.4559C41.3263 22.2116 41.4656 22.8645 41.744 23.4147C42.029 23.9649 42.43 24.3892 42.9471 24.6875C43.4641 24.9858 44.0773 25.1349 44.7866 25.1349C45.2572 25.1349 45.6881 25.0686 46.0792 24.936C46.4703 24.8035 46.805 24.6046 47.0835 24.3394C47.3619 24.0743 47.574 23.7495 47.7198 23.365L51.6374 23.6235C51.4386 24.5648 51.0309 25.3868 50.4144 26.0894C49.8046 26.7855 49.0157 27.329 48.0479 27.7201C47.0868 28.1046 45.9764 28.2968 44.717 28.2968ZM58.7269 7.6349V27.9985H54.4911V7.6349H58.7269ZM66.3558 7.6349V27.9985H62.12V7.6349H66.3558ZM76.6495 28.2968C75.105 28.2968 73.7693 27.9687 72.6424 27.3125C71.5221 26.6496 70.6571 25.7282 70.0472 24.5483C69.4374 23.3617 69.1325 21.9862 69.1325 20.4218C69.1325 18.8442 69.4374 17.4654 70.0472 16.2855C70.6571 15.0989 71.5221 14.1775 72.6424 13.5213C73.7693 12.8584 75.105 12.5269 76.6495 12.5269C78.194 12.5269 79.5264 12.8584 80.6467 13.5213C81.7736 14.1775 82.6419 15.0989 83.2518 16.2855C83.8616 17.4654 84.1665 18.8442 84.1665 20.4218C84.1665 21.9862 83.8616 23.3617 83.2518 24.5483C82.6419 25.7282 81.7736 26.6496 80.6467 27.3125C79.5264 27.9687 78.194 28.2968 76.6495 28.2968ZM76.6694 25.0156C77.372 25.0156 77.9587 24.8167 78.4293 24.419C78.9 24.0146 79.2546 23.4644 79.4933 22.7684C79.7385 22.0724 79.8612 21.2803 79.8612 20.392C79.8612 19.5037 79.7385 18.7116 79.4933 18.0156C79.2546 17.3196 78.9 16.7694 78.4293 16.365C77.9587 15.9607 77.372 15.7585 76.6694 15.7585C75.9601 15.7585 75.3635 15.9607 74.8796 16.365C74.4023 16.7694 74.0411 17.3196 73.7958 18.0156C73.5572 18.7116 73.4379 19.5037 73.4379 20.392C73.4379 21.2803 73.5572 22.0724 73.7958 22.7684C74.0411 23.4644 74.4023 24.0146 74.8796 24.419C75.3635 24.8167 75.9601 25.0156 76.6694 25.0156ZM91.1566 19.169V27.9985H86.9208V12.7258H90.9577V15.4204H91.1367C91.4748 14.5322 92.0415 13.8295 92.837 13.3125C93.6325 12.7888 94.5969 12.5269 95.7305 12.5269C96.7911 12.5269 97.7158 12.759 98.5046 13.223C99.2934 13.687 99.9066 14.3499 100.344 15.2116C100.782 16.0667 101 17.0875 101 18.2741V27.9985H96.7646V19.0298C96.7712 18.0951 96.5326 17.366 96.0487 16.8423C95.5647 16.312 94.8986 16.0468 94.0501 16.0468C93.48 16.0468 92.9762 16.1695 92.5387 16.4147C92.1078 16.66 91.7698 17.0179 91.5245 17.4886C91.2859 17.9526 91.1632 18.5127 91.1566 19.169ZM106.815 28.2571C106.158 28.2571 105.595 28.0251 105.124 27.561C104.66 27.0904 104.428 26.5269 104.428 25.8707C104.428 25.2211 104.66 24.6643 105.124 24.2002C105.595 23.7362 106.158 23.5042 106.815 23.5042C107.451 23.5042 108.008 23.7362 108.485 24.2002C108.962 24.6643 109.201 25.2211 109.201 25.8707C109.201 26.3082 109.088 26.7092 108.863 27.0738C108.644 27.4318 108.356 27.7201 107.998 27.9389C107.64 28.151 107.246 28.2571 106.815 28.2571Z" fill="white"/>
</svg>
