<svg width="181" height="335" viewBox="0 0 181 335" fill="none" xmlns="http://www.w3.org/2000/svg">
<circle cx="176.334" cy="329.997" r="4.21763" transform="rotate(-90.3282 176.334 329.997)" fill="white" fill-opacity="0.05"/>
<circle cx="147.235" cy="330.045" r="4.21763" transform="rotate(-90.3282 147.235 330.045)" fill="white" fill-opacity="0.05"/>
<circle cx="176.334" cy="34.7629" r="4.21763" transform="rotate(-90.3282 176.334 34.7629)" fill="white" fill-opacity="0.05"/>
<circle cx="147.235" cy="34.8115" r="4.21763" transform="rotate(-90.3282 147.235 34.8115)" fill="white" fill-opacity="0.05"/>
<circle cx="176.334" cy="5.23924" r="4.21763" transform="rotate(-90.3282 176.334 5.23924)" fill="white" fill-opacity="0.05"/>
<circle cx="147.235" cy="5.28782" r="4.21763" transform="rotate(-90.3282 147.235 5.28782)" fill="white" fill-opacity="0.05"/>
<circle cx="176.758" cy="300.522" r="4.21763" transform="rotate(-90.3282 176.758 300.522)" fill="white" fill-opacity="0.05"/>
<circle cx="147.659" cy="300.57" r="4.21763" transform="rotate(-90.3282 147.659 300.57)" fill="white" fill-opacity="0.05"/>
<circle cx="176.758" cy="270.998" r="4.21763" transform="rotate(-90.3282 176.758 270.998)" fill="white" fill-opacity="0.05"/>
<circle cx="147.659" cy="271.047" r="4.21763" transform="rotate(-90.3282 147.659 271.047)" fill="white" fill-opacity="0.05"/>
<circle cx="176.758" cy="241.475" r="4.21763" transform="rotate(-90.3282 176.758 241.475)" fill="white" fill-opacity="0.05"/>
<circle cx="147.659" cy="241.524" r="4.21763" transform="rotate(-90.3282 147.659 241.524)" fill="white" fill-opacity="0.05"/>
<circle cx="176.758" cy="211.951" r="4.21763" transform="rotate(-90.3282 176.758 211.951)" fill="white" fill-opacity="0.05"/>
<circle cx="147.659" cy="212" r="4.21763" transform="rotate(-90.3282 147.659 212)" fill="white" fill-opacity="0.05"/>
<circle cx="176.758" cy="182.428" r="4.21763" transform="rotate(-90.3282 176.758 182.428)" fill="white" fill-opacity="0.05"/>
<circle cx="147.659" cy="182.476" r="4.21763" transform="rotate(-90.3282 147.659 182.476)" fill="white" fill-opacity="0.05"/>
<circle cx="176.758" cy="152.905" r="4.21763" transform="rotate(-90.3282 176.758 152.905)" fill="white" fill-opacity="0.05"/>
<circle cx="147.659" cy="152.953" r="4.21763" transform="rotate(-90.3282 147.659 152.953)" fill="white" fill-opacity="0.05"/>
<circle cx="176.758" cy="123.381" r="4.21763" transform="rotate(-90.3282 176.758 123.381)" fill="white" fill-opacity="0.05"/>
<circle cx="147.659" cy="123.43" r="4.21763" transform="rotate(-90.3282 147.659 123.43)" fill="white" fill-opacity="0.05"/>
<circle cx="176.758" cy="93.8576" r="4.21763" transform="rotate(-90.3282 176.758 93.8576)" fill="white" fill-opacity="0.05"/>
<circle cx="147.659" cy="93.906" r="4.21763" transform="rotate(-90.3282 147.659 93.906)" fill="white" fill-opacity="0.05"/>
<circle cx="176.758" cy="64.3337" r="4.21763" transform="rotate(-90.3282 176.758 64.3337)" fill="white" fill-opacity="0.05"/>
<circle cx="147.659" cy="64.3823" r="4.21763" transform="rotate(-90.3282 147.659 64.3823)" fill="white" fill-opacity="0.05"/>
<circle cx="64.9912" cy="330.045" r="4.21763" transform="rotate(-90.3282 64.9912 330.045)" fill="white" fill-opacity="0.05"/>
<circle cx="35.8918" cy="330.094" r="4.21763" transform="rotate(-90.3282 35.8918 330.094)" fill="white" fill-opacity="0.05"/>
<circle cx="64.9912" cy="34.8115" r="4.21763" transform="rotate(-90.3282 64.9912 34.8115)" fill="white" fill-opacity="0.05"/>
<circle cx="35.8918" cy="34.8601" r="4.21763" transform="rotate(-90.3282 35.8918 34.8601)" fill="white" fill-opacity="0.05"/>
<circle cx="64.9912" cy="5.28733" r="4.21763" transform="rotate(-90.3282 64.9912 5.28733)" fill="white" fill-opacity="0.05"/>
<circle cx="35.8918" cy="5.33567" r="4.21763" transform="rotate(-90.3282 35.8918 5.33567)" fill="white" fill-opacity="0.05"/>
<circle cx="65.4151" cy="300.57" r="4.21763" transform="rotate(-90.3282 65.4151 300.57)" fill="white" fill-opacity="0.05"/>
<circle cx="36.3157" cy="300.619" r="4.21763" transform="rotate(-90.3282 36.3157 300.619)" fill="white" fill-opacity="0.05"/>
<circle cx="65.4151" cy="271.046" r="4.21763" transform="rotate(-90.3282 65.4151 271.046)" fill="white" fill-opacity="0.05"/>
<circle cx="36.3157" cy="271.094" r="4.21763" transform="rotate(-90.3282 36.3157 271.094)" fill="white" fill-opacity="0.05"/>
<circle cx="65.4151" cy="241.524" r="4.21763" transform="rotate(-90.3282 65.4151 241.524)" fill="white" fill-opacity="0.05"/>
<circle cx="36.3157" cy="241.572" r="4.21763" transform="rotate(-90.3282 36.3157 241.572)" fill="white" fill-opacity="0.05"/>
<circle cx="65.4151" cy="212" r="4.21763" transform="rotate(-90.3282 65.4151 212)" fill="white" fill-opacity="0.05"/>
<circle cx="36.3157" cy="212.049" r="4.21763" transform="rotate(-90.3282 36.3157 212.049)" fill="white" fill-opacity="0.05"/>
<circle cx="65.4151" cy="182.476" r="4.21763" transform="rotate(-90.3282 65.4151 182.476)" fill="white" fill-opacity="0.05"/>
<circle cx="36.3157" cy="182.524" r="4.21763" transform="rotate(-90.3282 36.3157 182.524)" fill="white" fill-opacity="0.05"/>
<circle cx="65.4151" cy="152.953" r="4.21763" transform="rotate(-90.3282 65.4151 152.953)" fill="white" fill-opacity="0.05"/>
<circle cx="36.3157" cy="153.002" r="4.21763" transform="rotate(-90.3282 36.3157 153.002)" fill="white" fill-opacity="0.05"/>
<circle cx="65.4151" cy="123.43" r="4.21763" transform="rotate(-90.3282 65.4151 123.43)" fill="white" fill-opacity="0.05"/>
<circle cx="36.3157" cy="123.478" r="4.21763" transform="rotate(-90.3282 36.3157 123.478)" fill="white" fill-opacity="0.05"/>
<circle cx="65.4151" cy="93.9055" r="4.21763" transform="rotate(-90.3282 65.4151 93.9055)" fill="white" fill-opacity="0.05"/>
<circle cx="36.3157" cy="93.9538" r="4.21763" transform="rotate(-90.3282 36.3157 93.9538)" fill="white" fill-opacity="0.05"/>
<circle cx="65.4151" cy="64.3823" r="4.21763" transform="rotate(-90.3282 65.4151 64.3823)" fill="white" fill-opacity="0.05"/>
<circle cx="36.3157" cy="64.4309" r="4.21763" transform="rotate(-90.3282 36.3157 64.4309)" fill="white" fill-opacity="0.05"/>
<circle cx="121.929" cy="330.045" r="4.21763" transform="rotate(-90.3282 121.929 330.045)" fill="white" fill-opacity="0.05"/>
<circle cx="92.8298" cy="330.094" r="4.21763" transform="rotate(-90.3282 92.8298 330.094)" fill="white" fill-opacity="0.05"/>
<circle cx="121.929" cy="34.8115" r="4.21763" transform="rotate(-90.3282 121.929 34.8115)" fill="white" fill-opacity="0.05"/>
<circle cx="92.8298" cy="34.8601" r="4.21763" transform="rotate(-90.3282 92.8298 34.8601)" fill="white" fill-opacity="0.05"/>
<circle cx="121.929" cy="5.28733" r="4.21763" transform="rotate(-90.3282 121.929 5.28733)" fill="white" fill-opacity="0.05"/>
<circle cx="92.8298" cy="5.33567" r="4.21763" transform="rotate(-90.3282 92.8298 5.33567)" fill="white" fill-opacity="0.05"/>
<circle cx="122.353" cy="300.57" r="4.21763" transform="rotate(-90.3282 122.353 300.57)" fill="white" fill-opacity="0.05"/>
<circle cx="93.2538" cy="300.619" r="4.21763" transform="rotate(-90.3282 93.2538 300.619)" fill="white" fill-opacity="0.05"/>
<circle cx="122.353" cy="271.046" r="4.21763" transform="rotate(-90.3282 122.353 271.046)" fill="white" fill-opacity="0.05"/>
<circle cx="93.2537" cy="271.094" r="4.21763" transform="rotate(-90.3282 93.2537 271.094)" fill="white" fill-opacity="0.05"/>
<circle cx="122.353" cy="241.524" r="4.21763" transform="rotate(-90.3282 122.353 241.524)" fill="white" fill-opacity="0.05"/>
<circle cx="93.2538" cy="241.572" r="4.21763" transform="rotate(-90.3282 93.2538 241.572)" fill="white" fill-opacity="0.05"/>
<circle cx="122.353" cy="212" r="4.21763" transform="rotate(-90.3282 122.353 212)" fill="white" fill-opacity="0.05"/>
<circle cx="93.2538" cy="212.049" r="4.21763" transform="rotate(-90.3282 93.2538 212.049)" fill="white" fill-opacity="0.05"/>
<circle cx="122.353" cy="182.476" r="4.21763" transform="rotate(-90.3282 122.353 182.476)" fill="white" fill-opacity="0.05"/>
<circle cx="93.2537" cy="182.524" r="4.21763" transform="rotate(-90.3282 93.2537 182.524)" fill="white" fill-opacity="0.05"/>
<circle cx="122.353" cy="152.953" r="4.21763" transform="rotate(-90.3282 122.353 152.953)" fill="white" fill-opacity="0.05"/>
<circle cx="93.2538" cy="153.002" r="4.21763" transform="rotate(-90.3282 93.2538 153.002)" fill="white" fill-opacity="0.05"/>
<circle cx="122.353" cy="123.43" r="4.21763" transform="rotate(-90.3282 122.353 123.43)" fill="white" fill-opacity="0.05"/>
<circle cx="93.2538" cy="123.478" r="4.21763" transform="rotate(-90.3282 93.2538 123.478)" fill="white" fill-opacity="0.05"/>
<circle cx="122.353" cy="93.9055" r="4.21763" transform="rotate(-90.3282 122.353 93.9055)" fill="white" fill-opacity="0.05"/>
<circle cx="93.2537" cy="93.9538" r="4.21763" transform="rotate(-90.3282 93.2537 93.9538)" fill="white" fill-opacity="0.05"/>
<circle cx="122.353" cy="64.3823" r="4.21763" transform="rotate(-90.3282 122.353 64.3823)" fill="white" fill-opacity="0.05"/>
<circle cx="93.2538" cy="64.4309" r="4.21763" transform="rotate(-90.3282 93.2538 64.4309)" fill="white" fill-opacity="0.05"/>
<circle cx="10.586" cy="330.094" r="4.21763" transform="rotate(-90.3282 10.586 330.094)" fill="white" fill-opacity="0.05"/>
<circle cx="10.586" cy="34.8594" r="4.21763" transform="rotate(-90.3282 10.586 34.8594)" fill="white" fill-opacity="0.05"/>
<circle cx="10.5859" cy="5.33567" r="4.21763" transform="rotate(-90.3282 10.5859 5.33567)" fill="white" fill-opacity="0.05"/>
<circle cx="11.0099" cy="300.618" r="4.21763" transform="rotate(-90.3282 11.0099 300.618)" fill="white" fill-opacity="0.05"/>
<circle cx="11.0099" cy="271.094" r="4.21763" transform="rotate(-90.3282 11.0099 271.094)" fill="white" fill-opacity="0.05"/>
<circle cx="11.0099" cy="241.572" r="4.21763" transform="rotate(-90.3282 11.0099 241.572)" fill="white" fill-opacity="0.05"/>
<circle cx="11.0099" cy="212.048" r="4.21763" transform="rotate(-90.3282 11.0099 212.048)" fill="white" fill-opacity="0.05"/>
<circle cx="11.0099" cy="182.524" r="4.21763" transform="rotate(-90.3282 11.0099 182.524)" fill="white" fill-opacity="0.05"/>
<circle cx="11.0099" cy="153.002" r="4.21763" transform="rotate(-90.3282 11.0099 153.002)" fill="white" fill-opacity="0.05"/>
<circle cx="11.0099" cy="123.478" r="4.21763" transform="rotate(-90.3282 11.0099 123.478)" fill="white" fill-opacity="0.05"/>
<circle cx="11.0099" cy="93.9538" r="4.21763" transform="rotate(-90.3282 11.0099 93.9538)" fill="white" fill-opacity="0.05"/>
<circle cx="11.0099" cy="64.4316" r="4.21763" transform="rotate(-90.3282 11.0099 64.4316)" fill="white" fill-opacity="0.05"/>
</svg>
